<?xml version="1.0" encoding="utf-8"?>
<svg version="1.1" xmlns:xlink="http://www.w3.org/1999/xlink" width="20px" height="20px" xmlns="http://www.w3.org/2000/svg">
  <defs>
    <filter x="1248px" y="6188px" width="20px" height="20px" filterUnits="userSpaceOnUse" id="filter13">
      <feOffset dx="1" dy="1" in="SourceAlpha" result="shadowOffsetInner" />
      <feGaussianBlur stdDeviation="2.5" in="shadowOffsetInner" result="shadowGaussian" />
      <feComposite in2="shadowGaussian" operator="atop" in="SourceAlpha" result="shadowComposite" />
      <feColorMatrix type="matrix" values="0 0 0 0 0  0 0 0 0 0  0 0 0 0 0  0 0 0 0.698039215686274 0  " in="shadowComposite" />
    </filter>
    <g id="widget14">
      <path d="M 1257 6192  C 1259.8 6192  1262 6194.2  1262 6197  C 1262 6199.8  1259.8 6202  1257 6202  C 1254.2 6202  1252 6199.8  1252 6197  C 1252 6194.2  1254.2 6192  1257 6192  Z " fill-rule="nonzero" fill="#dde7ff" stroke="none" />
      <path d="M 1257 6192.5  C 1259.52 6192.5  1261.5 6194.48  1261.5 6197  C 1261.5 6199.52  1259.52 6201.5  1257 6201.5  C 1254.48 6201.5  1252.5 6199.52  1252.5 6197  C 1252.5 6194.48  1254.48 6192.5  1257 6192.5  Z " stroke-width="1" stroke="#ffffff" fill="none" />
    </g>
  </defs>
  <g transform="matrix(1 0 0 1 -1248 -6188 )">
    <use xlink:href="#widget14" filter="url(#filter13)" />
    <use xlink:href="#widget14" />
  </g>
</svg>