<?xml version="1.0" encoding="utf-8"?>
<svg version="1.1" xmlns:xlink="http://www.w3.org/1999/xlink" width="42px" height="17px" xmlns="http://www.w3.org/2000/svg">
  <defs>
    <mask fill="white" id="clip15">
      <path d="M 0 17  L 0 0  L 15.9 0  L 27.9 0  L 42 0  L 42 17  L 0 17  Z " fill-rule="evenodd" />
    </mask>
  </defs>
  <g transform="matrix(1 0 0 1 -1157 -5959 )">
    <path d="M 0 17  L 0 0  L 15.9 0  L 27.9 0  L 42 0  L 42 17  L 0 17  Z " fill-rule="nonzero" fill="#ffffff" stroke="none" transform="matrix(1 0 0 1 1157 5959 )" />
    <path d="M 0 17  L 0 0  L 15.9 0  L 27.9 0  L 42 0  L 42 17  L 0 17  Z " stroke-width="2" stroke="#d7d7d7" fill="none" transform="matrix(1 0 0 1 1157 5959 )" mask="url(#clip15)" />
  </g>
</svg>