<?xml version="1.0" encoding="utf-8"?>
<svg version="1.1" xmlns:xlink="http://www.w3.org/1999/xlink" width="45px" height="192px" xmlns="http://www.w3.org/2000/svg">
  <g transform="matrix(1 0 0 1 -1270 -4717 )">
    <path d="M 1271 4721  A 3 3 0 0 1 1274 4718 L 1311 4718  A 3 3 0 0 1 1314 4721 L 1314 4905  A 3 3 0 0 1 1311 4908 L 1274 4908  A 3 3 0 0 1 1271 4905 L 1271 4721  Z " fill-rule="nonzero" fill="#ff3399" stroke="none" fill-opacity="0" />
    <path d="M 1270.5 4721  A 3.5 3.5 0 0 1 1274 4717.5 L 1311 4717.5  A 3.5 3.5 0 0 1 1314.5 4721 L 1314.5 4905  A 3.5 3.5 0 0 1 1311 4908.5 L 1274 4908.5  A 3.5 3.5 0 0 1 1270.5 4905 L 1270.5 4721  Z " stroke-width="1" stroke-dasharray="9,4" stroke="#ff3399" fill="none" stroke-dashoffset="0.5" />
  </g>
</svg>