<?xml version="1.0" encoding="utf-8"?>
<svg version="1.1" xmlns:xlink="http://www.w3.org/1999/xlink" width="53px" height="21px" xmlns="http://www.w3.org/2000/svg">
  <defs>
    <mask fill="white" id="clip2">
      <path d="M 0 21  L 0 0  L 53 0  L 53 21  L 31 21  L 26.8045977011493 21  L 0 21  Z " fill-rule="evenodd" />
    </mask>
  </defs>
  <g transform="matrix(1 0 0 1 -1339 -8627 )">
    <path d="M 0 21  L 0 0  L 53 0  L 53 21  L 31 21  L 26.8045977011493 21  L 0 21  Z " fill-rule="nonzero" fill="#f2f2f2" stroke="none" transform="matrix(1 0 0 1 1339 8627 )" />
    <path d="M 0 21  L 0 0  L 53 0  L 53 21  L 31 21  L 26.8045977011493 21  L 0 21  Z " stroke-width="2" stroke="#d7d7d7" fill="none" transform="matrix(1 0 0 1 1339 8627 )" mask="url(#clip2)" />
  </g>
</svg>